<svg xmlns="http://www.w3.org/2000/svg" viewBox="0 0 100 100"><rect width="100" height="100" rx="22" fill="#000"/><circle cx="20.91" cy="32.55" r="2.33" fill="#fff"/><circle cx="26.73" cy="32.55" r="2.33" fill="#fff"/><circle cx="32.55" cy="32.55" r="2.33" fill="#fff"/><circle cx="38.36" cy="32.55" r="2.33" fill="#fff"/><circle cx="44.18" cy="38.36" r="2.33" fill="#fff"/><circle cx="44.18" cy="44.18" r="2.33" fill="#fff"/><circle cx="26.73" cy="50.00" r="2.33" fill="#fff"/><circle cx="32.55" cy="50.00" r="2.33" fill="#fff"/><circle cx="38.36" cy="50.00" r="2.33" fill="#fff"/><circle cx="44.18" cy="55.82" r="2.33" fill="#fff"/><circle cx="44.18" cy="61.64" r="2.33" fill="#fff"/><circle cx="20.91" cy="67.45" r="2.33" fill="#fff"/><circle cx="26.73" cy="67.45" r="2.33" fill="#fff"/><circle cx="32.55" cy="67.45" r="2.33" fill="#fff"/><circle cx="38.36" cy="67.45" r="2.33" fill="#fff"/><circle cx="61.64" cy="32.55" r="2.33" fill="#fff"/><circle cx="67.45" cy="32.55" r="2.33" fill="#fff"/><circle cx="73.27" cy="32.55" r="2.33" fill="#fff"/><circle cx="55.82" cy="38.36" r="2.33" fill="#fff"/><circle cx="79.09" cy="38.36" r="2.33" fill="#fff"/><circle cx="55.82" cy="44.18" r="2.33" fill="#fff"/><circle cx="73.27" cy="44.18" r="2.33" fill="#fff"/><circle cx="79.09" cy="44.18" r="2.33" fill="#fff"/><circle cx="55.82" cy="50.00" r="2.33" fill="#fff"/><circle cx="67.45" cy="50.00" r="2.33" fill="#fff"/><circle cx="79.09" cy="50.00" r="2.33" fill="#fff"/><circle cx="55.82" cy="55.82" r="2.33" fill="#fff"/><circle cx="61.64" cy="55.82" r="2.33" fill="#fff"/><circle cx="79.09" cy="55.82" r="2.33" fill="#fff"/><circle cx="55.82" cy="61.64" r="2.33" fill="#fff"/><circle cx="79.09" cy="61.64" r="2.33" fill="#fff"/><circle cx="61.64" cy="67.45" r="2.33" fill="#fff"/><circle cx="67.45" cy="67.45" r="2.33" fill="#fff"/><circle cx="73.27" cy="67.45" r="2.33" fill="#fff"/><circle cx="78.80" cy="73.85" r="3.20" fill="#d6001c"/></svg>